name Walk1.mot
datacolumns 19
datarows 20
range 2.47100000 2.49000000
endheader

                time	   L_ground_force_vx	   L_ground_force_vy	   L_ground_force_vz	   L_ground_force_px	   L_ground_force_py	   L_ground_force_pz	   R_ground_force_vx	   R_ground_force_vy	   R_ground_force_vz	   R_ground_force_px	   R_ground_force_py	   R_ground_force_pz	   L_ground_torque_x	   L_ground_torque_y	   L_ground_torque_z	   R_ground_torque_x	   R_ground_torque_y	   R_ground_torque_z	
          2.47100000	          0.00000000	          0.00000000	          0.00000000	          0.00000000	          0.00000000	          0.00000000	         29.38782797	        194.98129220	          0.32507469	          0.34851116	          0.00000000	          0.13471919	          0.00000000	          0.00000000	          0.00000000	          0.00000000	         -6.53042380	          0.00000000	
          2.47200000	          0.00000000	          0.00000000	          0.00000000	          0.00000000	          0.00000000	          0.00000000	         28.28426192	        187.06443053	          0.42146755	          0.34922803	          0.00000000	          0.13427109	          0.00000000	          0.00000000	          0.00000000	          0.00000000	         -6.35793141	          0.00000000	
          2.47300000	          0.00000000	          0.00000000	          0.00000000	          0.00000000	          0.00000000	          0.00000000	         27.11041653	        179.25790465	          0.52886223	          0.35005230	          0.00000000	          0.13393890	          0.00000000	          0.00000000	          0.00000000	          0.00000000	         -6.17879349	          0.00000000	
          2.47400000	          0.00000000	          0.00000000	          0.00000000	          0.00000000	          0.00000000	          0.00000000	         25.86433204	        171.59080285	          0.65235230	          0.35091833	          0.00000000	          0.13371804	          0.00000000	          0.00000000	          0.00000000	          0.00000000	         -5.99263393	          0.00000000	
          2.47500000	          0.00000000	          0.00000000	          0.00000000	          0.00000000	          0.00000000	          0.00000000	         24.54938795	        164.08440890	          0.79046518	          0.35176365	          0.00000000	          0.13352126	          0.00000000	          0.00000000	          0.00000000	          0.00000000	         -5.79736304	          0.00000000	
          2.47600000	          0.00000000	          0.00000000	          0.00000000	          0.00000000	          0.00000000	          0.00000000	         23.17347218	        156.73780344	          0.93453712	          0.35259196	          0.00000000	          0.13323788	          0.00000000	          0.00000000	          0.00000000	          0.00000000	         -5.59102021	          0.00000000	
          2.47700000	          0.00000000	          0.00000000	          0.00000000	          0.00000000	          0.00000000	          0.00000000	         21.75578344	        149.54285425	          1.05974453	          0.35342304	          0.00000000	          0.13280983	          0.00000000	          0.00000000	          0.00000000	          0.00000000	         -5.37583812	          0.00000000	
          2.47800000	          0.00000000	          0.00000000	          0.00000000	          0.00000000	          0.00000000	          0.00000000	         20.32830692	        142.50390596	          1.13113498	          0.35419869	          0.00000000	          0.13224962	          0.00000000	          0.00000000	          0.00000000	          0.00000000	         -5.15904405	          0.00000000	
          2.47900000	          0.00000000	          0.00000000	          0.00000000	          0.00000000	          0.00000000	          0.00000000	         18.92159131	        135.63136539	          1.13490263	          0.35482485	          0.00000000	          0.13160650	          0.00000000	          0.00000000	          0.00000000	          0.00000000	         -4.94651142	          0.00000000	
          2.48000000	          0.00000000	          0.00000000	          0.00000000	          0.00000000	          0.00000000	          0.00000000	         17.54872225	        128.93338279	          1.09718018	          0.35529504	          0.00000000	          0.13094195	          0.00000000	          0.00000000	          0.00000000	          0.00000000	         -4.73743716	          0.00000000	
          2.48100000	          0.00000000	          0.00000000	          0.00000000	          0.00000000	          0.00000000	          0.00000000	         16.20637040	        122.43154365	          1.06004566	          0.35575066	          0.00000000	          0.13030917	          0.00000000	          0.00000000	          0.00000000	          0.00000000	         -4.52728488	          0.00000000	
          2.48200000	          0.00000000	          0.00000000	          0.00000000	          0.00000000	          0.00000000	          0.00000000	         14.88137266	        116.16550566	          1.04835799	          0.35644645	          0.00000000	          0.12972131	          0.00000000	          0.00000000	          0.00000000	          0.00000000	         -4.31241787	          0.00000000	
          2.48300000	          0.00000000	          0.00000000	          0.00000000	          0.00000000	          0.00000000	          0.00000000	         13.55279851	        110.16493567	          1.06588710	          0.35761930	          0.00000000	          0.12914009	          0.00000000	          0.00000000	          0.00000000	          0.00000000	         -4.09207450	          0.00000000	
          2.48400000	          0.00000000	          0.00000000	          0.00000000	          0.00000000	          0.00000000	          0.00000000	         12.20032449	        104.42867179	          1.10801199	          0.35934674	          0.00000000	          0.12848617	          0.00000000	          0.00000000	          0.00000000	          0.00000000	         -3.86755176	          0.00000000	
          2.48500000	          0.00000000	          0.00000000	          0.00000000	          0.00000000	          0.00000000	          0.00000000	         10.81638528	         98.93560259	          1.16452128	          0.36154365	          0.00000000	          0.12765523	          0.00000000	          0.00000000	          0.00000000	          0.00000000	         -3.63654289	          0.00000000	
          2.48600000	          0.00000000	          0.00000000	          0.00000000	          0.00000000	          0.00000000	          0.00000000	          9.40907449	         93.66733719	          1.21719777	          0.36406107	          0.00000000	          0.12655821	          0.00000000	          0.00000000	          0.00000000	          0.00000000	         -3.39130543	          0.00000000	
          2.48700000	          0.00000000	          0.00000000	          0.00000000	          0.00000000	          0.00000000	          0.00000000	          7.99413146	         88.62608944	          1.25019768	          0.36670017	          0.00000000	          0.12519704	          0.00000000	          0.00000000	          0.00000000	          0.00000000	         -3.12806494	          0.00000000	
          2.48800000	          0.00000000	          0.00000000	          0.00000000	          0.00000000	          0.00000000	          0.00000000	          6.58443396	         83.84595646	          1.26729527	          0.36916389	          0.00000000	          0.12375241	          0.00000000	          0.00000000	          0.00000000	          0.00000000	         -2.85631832	          0.00000000	
          2.48900000	          0.00000000	          0.00000000	          0.00000000	          0.00000000	          0.00000000	          0.00000000	          5.18885921	         79.38226337	          1.29075754	          0.37114463	          0.00000000	          0.12256780	          0.00000000	          0.00000000	          0.00000000	          0.00000000	         -2.59443334	          0.00000000	
          2.49000000	          0.00000000	          0.00000000	          0.00000000	          0.00000000	          0.00000000	          0.00000000	          3.82062749	         75.26605703	          1.33808331	          0.37249592	          0.00000000	          0.12191190	          0.00000000	          0.00000000	          0.00000000	          0.00000000	         -2.35548526	          0.00000000	
